<?xml version="1.0" standalone="no"?>
<!DOCTYPE svg PUBLIC "-//W3C//DTD SVG 20010904//EN"
 "http://www.w3.org/TR/2001/REC-SVG-20010904/DTD/svg10.dtd">
<svg version="1.0" xmlns="http://www.w3.org/2000/svg"
 width="512.000000pt" height="512.000000pt" viewBox="0 0 512.000000 512.000000"
 preserveAspectRatio="xMidYMid meet">
<metadata>
Created by potrace 1.14, written by Peter Selinger 2001-2017
</metadata>
<g transform="translate(0.000000,512.000000) scale(0.100000,-0.100000)"
fill="#000000" stroke="none">
<path d="M2415 5113 c-16 -2 -57 -11 -90 -19 -304 -76 -546 -274 -679 -555
-60 -127 -86 -230 -92 -364 -11 -255 -11 -261 -32 -302 -12 -22 -36 -53 -54
-69 -151 -133 -185 -194 -194 -347 -5 -105 -16 -132 -83 -216 -62 -75 -84
-118 -104 -193 -42 -162 8 -329 141 -466 26 -28 43 -88 46 -167 2 -44 7 -93
11 -110 14 -53 52 -119 94 -162 l42 -42 -38 -16 c-21 -9 -99 -39 -173 -67
-210 -79 -264 -110 -359 -208 -57 -59 -96 -117 -132 -196 -58 -127 -59 -143
-59 -861 0 -654 0 -656 22 -690 41 -67 -92 -63 1879 -63 2004 0 1840 -6 1880
72 19 37 20 59 19 696 -1 622 -2 661 -21 731 -47 176 -161 334 -301 419 -30
18 -131 62 -224 98 -93 36 -180 70 -194 76 -25 10 -25 10 -5 26 38 31 94 113
109 160 9 26 18 85 19 132 5 101 18 137 81 210 84 98 127 216 120 332 -6 119
-39 199 -120 295 -58 68 -76 113 -79 198 -2 39 -6 85 -9 103 -11 59 -57 135
-110 185 -28 27 -68 64 -88 83 -53 50 -67 104 -69 264 -4 223 -46 378 -152
555 -91 153 -267 312 -427 387 -75 36 -203 75 -275 87 -62 9 -247 12 -300 4z"/>
</g>
</svg>
